#!OML:ASF I:\Random Stuff\random\construction\7_22_03\Session 2\subj1.ASF
:FULLY-SPECIFIED
:DEGREES
874
root -10.5722 17.6974 2.20431 -169.936 -42.9455 -180.304
lowerback 13.2689 1.16014 5.44371
upperback 3.05454 2.10273 3.6103
thorax -4.14469 0.846725 0.382682
lowerneck -25.4584 -4.43726 -4.86232
upperneck 33.8956 -6.9382 3.07072
head 16.8727 -3.35358 0.586311
rclavicle -5.56597e-015 -1.59028e-015
rhumerus -37.137 20.717 -79.2811
rradius 38.4407
rwrist -15.173
rhand -26.7857 23.2091
rfingers 7.12502
rthumb -0.213143 -6.77057
lclavicle -5.56597e-015 -1.59028e-015
lhumerus -27.8038 -12.2584 93.0785
lradius 43.7368
lwrist 33.5838
lhand -15.4411 58.3189
lfingers 7.12502
lthumb -169.261 628.024
rfemur -24.0588 -1.23642 18.7437
rtibia 26.2619
rfoot -5.98104 -11.3324
rtoes -16.5171
lfemur -15.8146 -11.8471 -12.3085
ltibia 22.9058
lfoot -15.2828 -8.38268
ltoes -39.4417
875
root -10.6423 17.6799 2.30939 -170.806 -42.2027 -179.806
lowerback 12.9061 1.0463 5.09448
upperback 2.98383 1.89375 3.48475
thorax -4.03596 0.756365 0.484718
lowerneck -25.5364 -4.20898 -4.74133
upperneck 34.1978 -6.77547 3.22756
head 17.0406 -3.26153 0.664223
rclavicle 6.52014e-014 -4.29375e-014
rhumerus -37.6997 18.7626 -78.7621
rradius 38.2505
rwrist -14.7004
rhand -26.2565 21.7899
rfingers 7.12502
rthumb 0.298035 -8.18959
lclavicle 6.52014e-014 -4.29375e-014
lhumerus -27.625 -11.8438 92.9563
lradius 42.9135
lwrist 32.6026
lhand -15.6026 58.4178
lfingers 7.12502
lthumb -169.416 628.131
rfemur -23.7904 -0.868796 18.6237
rtibia 26.3586
rfoot -5.73335 -10.7199
rtoes -16.9415
lfemur -14.7179 -11.6805 -12.6765
ltibia 22.3619
lfoot -15.7877 -7.07079
ltoes -38.6589
876
root -10.7084 17.6671 2.42285 -171.588 -41.367 -179.395
lowerback 12.6163 0.967278 4.70447
upperback 2.88557 1.73621 3.33935
thorax -3.99374 0.690651 0.578437
lowerneck -25.5525 -3.97286 -4.61889
upperneck 34.4397 -6.61024 3.41292
head 17.1654 -3.16531 0.757889
rclavicle -1.59028e-014 -9.70069e-014
rhumerus -38.2204 16.7897 -78.1744
rradius 37.9862
rwrist -14.0589
rhand -26.9759 23.6424
rfingers 7.12502
rthumb -0.396845 -6.337
lclavicle -1.59028e-014 -9.70069e-014
lhumerus -27.4857 -11.6532 92.9177
lradius 42.1202
lwrist 31.9891
lhand -15.7754 58.541
lfingers 7.12502
lthumb -169.583 628.263
rfemur -23.6075 -0.491739 18.4619
rtibia 26.42
rfoot -5.23569 -10.0602
rtoes -18.8708
lfemur -13.7203 -11.6098 -13.0529
ltibia 21.8505
lfoot -16.1542 -5.88641
ltoes -37.7561
877
root -10.7689 17.6647 2.54069 -172.243 -40.4388 -179.143
lowerback 12.3972 0.8867 4.13091
upperback 2.79256 1.55992 3.1888
thorax -3.98879 0.616937 0.771257
lowerneck -25.603 -3.7 -4.48118
upperneck 34.6449 -6.40171 3.63303
head 17.2788 -3.04313 0.874967
rclavicle -6.99722e-014 -2.70347e-014
rhumerus -38.5187 14.9189 -77.6123
rradius 37.4148
rwrist -13.7139
rhand -26.3675 22.4913
rfingers 7.12502
rthumb 0.190799 -7.48837
lclavicle -6.99722e-014 -2.70347e-014
lhumerus -27.351 -11.4339 92.9262
lradius 41.4722
lwrist 31.8134
lhand -16.2865 59.0076
lfingers 7.12502
lthumb -170.076 628.754
rfemur -23.5113 -0.0948578 18.1912
rtibia 26.4998
rfoot -4.67943 -9.30918
rtoes -20.3086
lfemur -12.8263 -11.459 -13.4863
ltibia 21.396
lfoot -16.3205 -5.12644
ltoes -37.0795
878
root -10.8172 17.6622 2.66655 -172.62 -39.5055 -179.078
lowerback 12.166 0.814917 3.39554
upperback 2.6749 1.38059 3.01464
thorax -4.0037 0.544795 1.03065
lowerneck -25.5419 -3.51479 -4.48708
upperneck 34.6212 -6.27813 3.97792
head 17.263 -2.95313 1.05763
rclavicle 7.07673e-014 1.59028e-015
rhumerus -38.6228 13.0203 -76.9584
rradius 36.7412
rwrist -13.3907
rhand -26.2689 22.1666
rfingers 7.12502
rthumb 0.286018 -7.81298
lclavicle 7.07673e-014 1.59028e-015
lhumerus -27.1593 -10.9765 92.8905
lradius 40.7628
lwrist 31.244
lhand -16.4526 59.1671
lfingers 7.12502
lthumb -170.236 628.921
rfemur -23.6832 0.261923 17.8042
rtibia 26.6115
rfoot -4.10594 -8.47191
rtoes -20.9024
lfemur -12.2187 -11.0779 -13.9749
ltibia 20.971
lfoot -16.1928 -4.61377
ltoes -37.1797
879
root -10.8503 17.6634 2.80004 -172.683 -38.5307 -179.196
lowerback 11.9109 0.779974 2.47676
upperback 2.5048 1.23539 2.78603
thorax -4.05947 0.494179 1.3313
lowerneck -25.4714 -3.36197 -4.40737
upperneck 34.4913 -6.19528 4.25881
head 17.1843 -2.87406 1.18792
rclavicle 1.51076e-014 -3.02153e-014
rhumerus -38.6801 11.0527 -76.3103
rradius 36.1002
rwrist -12.9512
rhand -26.2883 21.9438
rfingers 7.12502
rthumb 0.26727 -8.03576
lclavicle 1.51076e-014 -3.02153e-014
lhumerus -26.9822 -10.6643 92.8364
lradius 40.1444
lwrist 30.9207
lhand -16.8235 59.0705
lfingers 7.12502
lthumb -170.594 628.841
rfemur -24.1298 0.728476 17.2833
rtibia 26.7083
rfoot -3.48469 -7.72865
rtoes -21.4007
lfemur -11.9257 -10.3634 -14.5299
ltibia 20.5438
lfoot -15.9157 -4.32185
ltoes -37.8891
880
root -10.8781 17.672 2.93317 -172.56 -37.4098 -179.564
lowerback 11.6506 0.791093 1.30532
upperback 2.36009 1.12033 2.48909
thorax -4.0855 0.462695 1.6991
lowerneck -25.7649 -3.04608 -3.91165
upperneck 34.6215 -5.92324 4.18652
head 17.2828 -2.70846 1.12592
rclavicle -2.36554e-014 1.19271e-014
rhumerus -38.6823 8.95449 -75.6924
rradius 35.4442
rwrist -12.1527
rhand -26.4356 21.7523
rfingers 7.12502
rthumb 0.125025 -8.22745
lclavicle -2.36554e-014 1.19271e-014
lhumerus -26.8371 -10.513 92.7251
lradius 39.6632
lwrist 30.7426
lhand -17.039 59.1319
lfingers 7.12502
lthumb -170.802 628.911
rfemur -24.602 1.25109 16.5647
rtibia 26.7233
rfoot -2.96512 -7.10931
rtoes -21.3275
lfemur -11.6982 -9.64628 -15.2879
ltibia 20.1748
lfoot -15.7663 -4.14542
ltoes -38.5353
881
root -10.901 17.6896 3.06419 -172.433 -36.1935 -179.911
lowerback 11.349 0.847836 0.107743
upperback 2.27894 1.05937 2.22194
thorax -4.02072 0.455649 2.10625
lowerneck -26.4126 -2.68193 -3.34074
upperneck 34.9053 -5.55944 3.99136
head 17.5383 -2.50398 1.01388
rclavicle 2.3059e-014 -3.65764e-014
rhumerus -38.5361 6.7932 -74.9994
rradius 34.7337
rwrist -11.0954
rhand -26.4935 21.488
rfingers 7.12502
rthumb 0.0690983 -8.49175
lclavicle 2.3059e-014 -3.65764e-014
lhumerus -26.6671 -10.4479 92.6599
lradius 39.3019
lwrist 30.5853
lhand -17.0174 59.1683
lfingers 7.12502
lthumb -170.781 628.947
rfemur -25.0427 1.68157 15.9323
rtibia 26.5222
rfoot -2.49037 -6.53216
rtoes -20.3575
lfemur -11.5347 -9.24335 -16.0161
ltibia 19.8966
lfoot -15.6746 -3.77431
ltoes -38.8772
882
root -10.9126 17.7091 3.19615 -172.393 -34.9575 -179.928
lowerback 11.0372 0.919644 -0.91013
upperback 2.18301 1.04579 2.05069
thorax -3.96378 0.468094 2.50615
lowerneck -27.2604 -2.32103 -2.88738
upperneck 35.3172 -5.24875 3.99155
head 17.9369 -2.30502 0.999399
rclavicle -7.7526e-014 3.73715e-014
rhumerus -38.2509 4.55943 -74.2653
rradius 33.8739
rwrist -9.87515
rhand -26.1276 21.4156
rfingers 7.12502
rthumb 0.422536 -8.56371
lclavicle -7.7526e-014 3.73715e-014
lhumerus -26.4886 -10.4698 92.6203
lradius 39.0289
lwrist 30.6047
lhand -17.214 59.3566
lfingers 7.12502
lthumb -170.971 629.143
rfemur -25.5129 2.12992 15.6868
rtibia 26.035
rfoot -1.85776 -6.13552
rtoes -19.2781
lfemur -11.5939 -8.89847 -16.3859
ltibia 19.7045
lfoot -15.5815 -3.22543
ltoes -38.8069
883
root -10.9142 17.7222 3.32691 -172.497 -33.7763 -179.601
lowerback 10.7667 0.9985 -1.6495
upperback 2.03231 1.08049 1.93917
thorax -3.98495 0.502359 2.80418
lowerneck -27.2888 -2.05071 -2.77411
upperneck 34.9719 -5.06882 4.54849
head 17.77 -2.12923 1.27632
rclavicle 6.38099e-014 2.18663e-014
rhumerus -38.0398 2.38417 -73.6576
rradius 32.9871
rwrist -8.72948
rhand -25.4534 21.6202
rfingers 7.12502
rthumb 1.07371 -8.3568
lclavicle 6.38099e-014 2.18663e-014
lhumerus -26.4419 -10.8104 92.5951
lradius 38.8967
lwrist 30.9861
lhand -17.8984 59.8281
lfingers 7.12502
lthumb -171.632 629.642
rfemur -25.8624 2.63296 15.839
rtibia 25.2795
rfoot -1.14437 -5.98482
rtoes -18.4445
lfemur -11.7973 -8.50192 -16.3627
ltibia 19.6057
lfoot -15.4561 -2.75746
ltoes -37.9747
884
root -10.9106 17.7323 3.45157 -172.793 -32.6254 -179.094
lowerback 10.5511 1.1036 -2.16545
upperback 1.89878 1.17423 1.84835
thorax -4.0191 0.562207 2.98909
lowerneck -26.4868 -1.96247 -2.70271
upperneck 33.8093 -4.9946 5.00873
head 16.9778 -2.02117 1.48317
rclavicle -1.27222e-014 8.34896e-015
rhumerus -37.9464 0.374618 -73.2207
rradius 32.1985
rwrist -7.74799
rhand -24.9841 21.5576
rfingers 7.12502
rthumb 1.52692 -8.41668
lclavicle -1.27222e-014 8.34896e-015
lhumerus -26.5033 -11.4674 92.594
lradius 38.8757
lwrist 31.341
lhand -18.3334 60.1765
lfingers 7.12502
lthumb -172.051 449.993
rfemur -25.914 3.11545 16.2248
rtibia 24.3312
rfoot -0.677263 -6.05229
rtoes -16.8835
lfemur -11.9269 -8.32448 -16.1277
ltibia 19.6466
lfoot -15.3734 -2.06804
ltoes -37.178
